<?xml version="1.0" standalone="no"?><!DOCTYPE svg PUBLIC "-//W3C//DTD SVG 1.1//EN" "http://www.w3.org/Graphics/SVG/1.1/DTD/svg11.dtd"><svg t="1736757283443" class="icon" viewBox="0 0 1024 1024" version="1.1" xmlns="http://www.w3.org/2000/svg" p-id="20291" xmlns:xlink="http://www.w3.org/1999/xlink" width="64" height="64"><path d="M883.712 294.912H640c10.24-24.576 19.456-54.272 19.456-90.112 0-80.896-64.512-140.288-147.456-140.288-97.28 0-115.712 107.52-143.36 152.576-22.528 34.816-86.016 113.664-121.856 134.144a64.096 64.096 0 0 0-54.272-30.72h-128C28.672 320.512 0 349.184 0 384v448.512C0 867.328 28.672 896 64.512 896h128c17.408 0 34.816-7.168 46.08-19.456 69.632 15.36 142.336 83.968 249.856 83.968h47.104c118.784 0 180.224-72.704 177.152-172.032 28.672-33.792 41.984-83.968 32.768-131.072 14.336-23.552 22.528-51.2 24.576-78.848v-2.048h113.664C959.488 576.512 1024 512 1024 435.2c0-75.776-65.536-140.288-140.288-140.288zM64.512 384h128v448.512h-128V384z m819.2 128h-198.656c27.648 31.744 30.72 93.184-11.264 133.12 24.576 43.008 4.096 99.328-27.648 117.76 13.312 84.992-22.528 133.12-110.592 133.12h-47.104c-88.064 0-152.576-62.464-232.448-81.92V416.768c59.392-21.504 138.24-118.784 166.912-165.888C454.656 199.68 463.872 128 512 128s82.944 31.744 82.944 76.8c0 76.8-57.344 115.712-57.344 153.6h346.112c39.936 0 76.8 35.84 76.8 76.8 0 41.984-35.84 76.8-76.8 76.8zM167.936 768c0 22.528-17.408 39.936-39.936 39.936S88.064 790.528 88.064 768 105.472 728.064 128 728.064s39.936 18.432 39.936 39.936z" p-id="20292"></path></svg>